<svg width="128" height="128" viewBox="0 0 128 128" xmlns="http://www.w3.org/2000/svg">
  <defs>
    <linearGradient id="g" x1="0" y1="0" x2="1" y2="1">
      <stop offset="0%" stop-color="#7C3AED"/>
      <stop offset="100%" stop-color="#06B6D4"/>
    </linearGradient>
  </defs>
  <!-- Scan brackets -->
  <rect x="8" y="8" width="28" height="8" rx="4" fill="url(#g)"/>
  <rect x="8" y="8" width="8" height="28" rx="4" fill="url(#g)"/>
  <rect x="92" y="8" width="28" height="8" rx="4" fill="url(#g)"/>
  <rect x="112" y="8" width="8" height="28" rx="4" fill="url(#g)"/>
  <rect x="8" y="112" width="28" height="8" rx="4" fill="url(#g)"/>
  <rect x="8" y="92" width="8" height="28" rx="4" fill="url(#g)"/>
  <rect x="92" y="112" width="28" height="8" rx="4" fill="url(#g)"/>
  <rect x="112" y="92" width="8" height="28" rx="4" fill="url(#g)"/>
  <!-- Paper plane -->
  <g transform="translate(18,18)">
    <path d="M10 50 L90 20 L60 100 L52 64 Z" fill="url(#g)" opacity="0.12"/>
    <path d="M10 50 L90 20 L52 64 Z" fill="url(#g)"/>
    <path d="M60 100 L52 64 L40 72 Z" fill="url(#g)"/>
  </g>
</svg>